Coordinates
version=1
nRows=88
nColumns=6
inDegrees=yes

Units are S.I. units (second, meters, Newtons, ...)
If the header above contains a line with 'inDegrees', this indicates whether rotational values are in degrees (yes) or radians (no).

endheader
time	foot_tx	hip_flexion_r	knee_angle_r	ankle_angle_r	lumbar
    133.80000000	      0.22489707	     64.42578352	    -79.80106317	     -1.50129578	    -27.96466032
    133.81000000	      0.22488470	     64.45242455	    -79.77929758	     -1.51916857	    -27.99770799
    133.82000000	      0.22487552	     64.48234024	    -79.75430147	     -1.53966598	    -28.04033854
    133.83000000	      0.22485379	     64.46485818	    -79.72662432	     -1.55661702	    -28.14938090
    133.84000000	      0.22484395	     64.51326591	    -79.69763554	     -1.58151201	    -28.20148037
    133.85000000	      0.22482852	     64.52415094	    -79.66531597	     -1.60410578	    -28.30959066
    133.86000000	      0.22481804	     64.58632293	    -79.63273150	     -1.63198201	    -28.37799256
    133.87000000	      0.22480187	     64.59802661	    -79.59792382	     -1.65587444	    -28.51950404
    133.88000000	      0.22479017	     64.64415337	    -79.56348699	     -1.68314311	    -28.64220225
    133.89000000	      0.22477902	     64.73121603	    -79.53057916	     -1.71352701	    -28.73966643
    133.90000000	      0.22475655	     64.74014771	    -79.49776671	     -1.73547847	    -28.94291756
    133.91000000	      0.22473379	     64.78389083	    -79.46678921	     -1.75922235	    -29.12829121
    133.92000000	      0.22471095	     64.82791913	    -79.43630032	     -1.78215198	    -29.33481602
    133.93000000	      0.22468346	     64.87282610	    -79.40635028	     -1.80435573	    -29.56374715
    133.94000000	      0.22465043	     64.92318492	    -79.37680564	     -1.82669870	    -29.81220087
    133.95000000	      0.22461695	     64.98571124	    -79.34760149	     -1.85038820	    -30.07459582
    133.96000000	      0.22458171	     65.06003017	    -79.31898701	     -1.87520583	    -30.35252500
    133.97000000	      0.22454494	     65.14375853	    -79.29084710	     -1.90068205	    -30.64901740
    133.98000000	      0.22450494	     65.22901297	    -79.26273138	     -1.92555952	    -30.97234483
    133.99000000	      0.22446334	     65.31028679	    -79.23379785	     -1.94913833	    -31.32789833
    134.00000000	      0.22442079	     65.38352760	    -79.20327605	     -1.97092726	    -31.71973200
    134.01000000	      0.22437631	     65.44577485	    -79.17072591	     -1.99045654	    -32.15093765
    134.02000000	      0.22433194	     65.50183040	    -79.13617414	     -2.00818463	    -32.61654702
    134.03000000	      0.22428660	     65.55276250	    -79.09972395	     -2.02418710	    -33.11585809
    134.04000000	      0.22424024	     65.60732100	    -79.06140486	     -2.03972562	    -33.64042346
    134.05000000	      0.22419437	     65.67391054	    -79.02127509	     -2.05613498	    -34.18205254
    134.06000000	      0.22414808	     65.76005805	    -78.97974671	     -2.07421403	    -34.73314600
    134.07000000	      0.22410489	     65.86959672	    -78.93696709	     -2.09448233	    -35.28928378
    134.08000000	      0.22406245	     66.00508958	    -78.89319016	     -2.11664476	    -35.84679019
    134.09000000	      0.22402325	     66.16652915	    -78.84843146	     -2.14030173	    -36.40417300
    134.10000000	      0.22398617	     66.35332312	    -78.80334311	     -2.16428089	    -36.96023662
    134.11000000	      0.22394990	     66.56460493	    -78.75894679	     -2.18709125	    -37.51395038
    134.12000000	      0.22391523	     66.80212966	    -78.71683897	     -2.20728520	    -38.06137477
    134.13000000	      0.22387912	     67.06630557	    -78.67820800	     -2.22337180	    -38.60047488
    134.14000000	      0.22384596	     67.35966849	    -78.64261961	     -2.23554886	    -39.12750451
    134.15000000	      0.22380920	     67.68291074	    -78.61220210	     -2.24192953	    -39.64095717
    134.16000000	      0.22377935	     68.03392906	    -78.58212402	     -2.24540874	    -40.14386170
    134.17000000	      0.22373690	     68.41459787	    -78.55727801	     -2.24221473	    -40.63417438
    134.18000000	      0.22368850	     68.81999210	    -78.53557894	     -2.23345428	    -41.11797684
    134.19000000	      0.22364881	     69.24462655	    -78.50999454	     -2.22340127	    -41.60288598
    134.20000000	      0.22361485	     69.71650709	    -78.48196317	     -2.21406220	    -42.05945650
    134.21000000	      0.22357891	     70.14632026	    -78.45128702	     -2.19597825	    -42.58438487
    134.22000000	      0.22355796	     70.64772395	    -78.41844375	     -2.18165692	    -43.05585624
    134.23000000	      0.22354654	     71.16245216	    -78.38265689	     -2.16482558	    -43.53671428
    134.24000000	      0.22355620	     71.69644302	    -78.34371493	     -2.14644032	    -44.01957234
    134.25000000	      0.22358169	     72.32136137	    -78.30504222	     -2.13109436	    -44.42644020
    134.26000000	      0.22363469	     72.98647971	    -78.26469672	     -2.11448907	    -44.80988255
    134.27000000	      0.22371215	     73.70780870	    -78.22586683	     -2.09547854	    -45.14982567
    134.28000000	      0.22379895	     74.49535183	    -78.18948328	     -2.07267440	    -45.43480517
    134.29000000	      0.22389695	     75.34248005	    -78.15779061	     -2.04306509	    -45.66732269
    134.30000000	      0.22399719	     76.25232045	    -78.12963475	     -2.00567102	    -45.84204560
    134.31000000	      0.22406929	     77.21146141	    -78.11175874	     -1.95235108	    -45.96936847
    134.32000000	      0.22413134	     78.22029458	    -78.09823493	     -1.88608247	    -46.04580852
    134.33000000	      0.22417536	     79.27990001	    -78.09171865	     -1.80435191	    -46.06670601
    134.34000000	      0.22420447	     80.38963178	    -78.09193215	     -1.70726875	    -46.03008293
    134.35000000	      0.22421235	     81.55804722	    -78.10276604	     -1.59311426	    -45.92255544
    134.36000000	      0.22420445	     82.78261453	    -78.12265103	     -1.46218563	    -45.74242623
    134.37000000	      0.22417076	     84.06882796	    -78.15270018	     -1.31245153	    -45.47665124
    134.38000000	      0.22410309	     85.41309771	    -78.19209109	     -1.14172553	    -45.12169298
    134.39000000	      0.22399167	     86.80649794	    -78.24087802	     -0.94693232	    -44.68019504
    134.40000000	      0.22383442	     88.23756966	    -78.29787345	     -0.72612055	    -44.15860214
    134.41000000	      0.22363097	     89.69214343	    -78.36299669	     -0.47684211	    -43.56716040
    134.42000000	      0.22339394	     91.15250843	    -78.43362383	     -0.19872915	    -42.92118421
    134.43000000	      0.22313374	     92.59387423	    -78.51172296	      0.11060272	    -42.24582298
    134.44000000	      0.22287563	     94.00465709	    -78.59334264	      0.44855136	    -41.54963891
    134.45000000	      0.22264637	     95.36147378	    -78.67925289	      0.81466916	    -40.85600763
    134.46000000	      0.22247335	     96.64609168	    -78.76804659	      1.20633381	    -40.18108768
    134.47000000	      0.22238215	     97.84130171	    -78.85922560	      1.62059254	    -39.53923395
    134.48000000	      0.22238986	     98.93301685	    -78.95208004	      2.05400298	    -38.94006283
    134.49000000	      0.22249878	     99.90697110	    -79.04766982	      2.50429806	    -38.39287440
    134.50000000	      0.22270047	    100.74535545	    -79.14830878	      2.97061969	    -37.91183271
    134.51000000	      0.22296697	    101.43311169	    -79.25820174	      3.45368159	    -37.50730836
    134.52000000	      0.22327434	    101.94889887	    -79.38284571	      3.95531372	    -37.20001263
    134.53000000	      0.22360427	    102.28436605	    -79.52400267	      4.47427213	    -36.99632497
    134.54000000	      0.22395414	    102.43386139	    -79.68036362	      5.00762933	    -36.90119764
    134.55000000	      0.22432649	    102.40081289	    -79.84707810	      5.55086584	    -36.90990827
    134.56000000	      0.22472528	    102.19661538	    -80.01726263	      6.09920676	    -37.00847219
    134.57000000	      0.22515552	    101.84167356	    -80.18155214	      6.64677074	    -37.17445002
    134.58000000	      0.22561442	    101.35906448	    -80.33136034	      7.18929219	    -37.38314470
    134.59000000	      0.22609877	    100.77062157	    -80.45669392	      7.72261061	    -37.61211630
    134.60000000	      0.22660014	    100.09259660	    -80.54581964	      8.24270720	    -37.84475774
    134.61000000	      0.22710730	     99.33585728	    -80.58709140	      8.74640760	    -38.07131977
    134.62000000	      0.22760953	     98.51393607	    -80.57031284	      9.23010407	    -38.27803771
    134.63000000	      0.22809743	     97.63896947	    -80.48550293	      9.68913962	    -38.45516025
    134.64000000	      0.22856119	     96.71536428	    -80.32590771	     10.12060354	    -38.60416276
    134.65000000	      0.22899769	     95.75457860	    -80.08675597	     10.52014238	    -38.71875173
    134.66000000	      0.22940075	     94.77051353	    -79.76546109	     10.88389052	    -38.79160035
    134.67000000	      0.22977223	     93.76658737	    -79.36280372	     11.20984663	    -38.82675474
